<mxfile host="Electron" agent="Mozilla/5.0 (Windows NT 10.0; Win64; x64) AppleWebKit/537.36 (KHTML, like Gecko) draw.io/26.2.2 Chrome/134.0.6998.178 Electron/35.1.2 Safari/537.36" version="26.2.2">
  <diagram name="DiagramaHoteles" id="nj8ua3Aio_hKFQyYbFGM">
    <mxGraphModel dx="1027" dy="516" grid="1" gridSize="10" guides="1" tooltips="1" connect="1" arrows="1" fold="1" page="1" pageScale="1" pageWidth="827" pageHeight="1169" math="0" shadow="0">
      <root>
        <mxCell id="0" />
        <mxCell id="1" parent="0" />
        <mxCell id="8ctLL7gIs-mifl3hI3hx-1" value="&lt;b&gt;AreaMetropolitana&lt;/b&gt;" style="swimlane;html=1;" vertex="1" parent="1">
          <mxGeometry x="280" y="220" width="200" height="120" as="geometry" />
        </mxCell>
        <mxCell id="8ctLL7gIs-mifl3hI3hx-11" value="&lt;br style=&quot;font-weight: 700;&quot;&gt;&lt;span style=&quot;font-weight: 700;&quot;&gt;- nombre: String&lt;/span&gt;&lt;br style=&quot;font-weight: 700;&quot;&gt;&lt;span style=&quot;font-weight: 700;&quot;&gt;- estadoProvincia: String&lt;/span&gt;&lt;br style=&quot;font-weight: 700;&quot;&gt;&lt;span style=&quot;font-weight: 700;&quot;&gt;- pais: String&lt;/span&gt;" style="text;html=1;align=center;verticalAlign=middle;resizable=0;points=[];autosize=1;strokeColor=none;fillColor=none;" vertex="1" parent="8ctLL7gIs-mifl3hI3hx-1">
          <mxGeometry x="10" y="10" width="170" height="70" as="geometry" />
        </mxCell>
        <mxCell id="8ctLL7gIs-mifl3hI3hx-2" value="Hotel" style="swimlane;html=1;" vertex="1" parent="1">
          <mxGeometry x="560" y="220" width="260" height="180" as="geometry" />
        </mxCell>
        <mxCell id="8ctLL7gIs-mifl3hI3hx-10" value="&lt;br style=&quot;font-weight: 700;&quot;&gt;&lt;span style=&quot;font-weight: 700;&quot;&gt;- nombre: String&lt;/span&gt;&lt;br style=&quot;font-weight: 700;&quot;&gt;&lt;span style=&quot;font-weight: 700;&quot;&gt;- direccion: String&lt;/span&gt;&lt;br style=&quot;font-weight: 700;&quot;&gt;&lt;span style=&quot;font-weight: 700;&quot;&gt;- numeroHabitaciones: int&lt;/span&gt;&lt;br style=&quot;font-weight: 700;&quot;&gt;&lt;span style=&quot;font-weight: 700;&quot;&gt;- telefono: String&lt;/span&gt;&lt;br style=&quot;font-weight: 700;&quot;&gt;&lt;span style=&quot;font-weight: 700;&quot;&gt;- numeroEstrellas: int&lt;/span&gt;&lt;br style=&quot;font-weight: 700;&quot;&gt;&lt;span style=&quot;font-weight: 700;&quot;&gt;- precioHabitacionSimple: double&lt;/span&gt;&lt;br style=&quot;font-weight: 700;&quot;&gt;&lt;span style=&quot;font-weight: 700;&quot;&gt;- precioHabitacionDoble: double&lt;/span&gt;" style="text;html=1;align=center;verticalAlign=middle;resizable=0;points=[];autosize=1;strokeColor=none;fillColor=none;" vertex="1" parent="8ctLL7gIs-mifl3hI3hx-2">
          <mxGeometry x="20" y="25" width="210" height="130" as="geometry" />
        </mxCell>
        <mxCell id="8ctLL7gIs-mifl3hI3hx-3" value="&lt;b&gt;HotelCadena&lt;/b&gt;" style="swimlane;html=1;" vertex="1" parent="1">
          <mxGeometry x="560" y="420" width="160" height="60" as="geometry" />
        </mxCell>
        <mxCell id="8ctLL7gIs-mifl3hI3hx-4" value="&lt;b&gt;CadenaHotel&lt;/b&gt;" style="swimlane;html=1;" vertex="1" parent="1">
          <mxGeometry x="760" y="420" width="180" height="100" as="geometry" />
        </mxCell>
        <mxCell id="8ctLL7gIs-mifl3hI3hx-13" value="&lt;br style=&quot;font-weight: 700;&quot;&gt;&lt;span style=&quot;font-weight: 700;&quot;&gt;- nombre: String&lt;/span&gt;&lt;br style=&quot;font-weight: 700;&quot;&gt;&lt;span style=&quot;font-weight: 700;&quot;&gt;- director: String&lt;/span&gt;" style="text;html=1;align=center;verticalAlign=middle;resizable=0;points=[];autosize=1;strokeColor=none;fillColor=none;" vertex="1" parent="8ctLL7gIs-mifl3hI3hx-4">
          <mxGeometry x="30" y="20" width="120" height="60" as="geometry" />
        </mxCell>
        <mxCell id="8ctLL7gIs-mifl3hI3hx-5" value="&lt;b&gt;TarjetaCredito&lt;/b&gt;" style="swimlane;html=1;startSize=23;" vertex="1" parent="1">
          <mxGeometry x="930" y="230" width="180" height="60" as="geometry" />
        </mxCell>
        <mxCell id="8ctLL7gIs-mifl3hI3hx-12" value="&lt;span style=&quot;font-weight: 700;&quot;&gt;- nombre: String&lt;/span&gt;" style="text;html=1;align=center;verticalAlign=middle;resizable=0;points=[];autosize=1;strokeColor=none;fillColor=none;" vertex="1" parent="8ctLL7gIs-mifl3hI3hx-5">
          <mxGeometry x="30" y="20" width="120" height="30" as="geometry" />
        </mxCell>
        <mxCell id="8ctLL7gIs-mifl3hI3hx-6" style="endArrow=diamond;dashed=0;" edge="1" parent="1" source="8ctLL7gIs-mifl3hI3hx-1" target="8ctLL7gIs-mifl3hI3hx-2">
          <mxGeometry relative="1" as="geometry" />
        </mxCell>
        <mxCell id="8ctLL7gIs-mifl3hI3hx-7" style="endArrow=block;endFill=1;" edge="1" parent="1" source="8ctLL7gIs-mifl3hI3hx-3" target="8ctLL7gIs-mifl3hI3hx-2">
          <mxGeometry relative="1" as="geometry" />
        </mxCell>
        <mxCell id="8ctLL7gIs-mifl3hI3hx-8" style="endArrow=diamond;endFill=1;" edge="1" parent="1" source="8ctLL7gIs-mifl3hI3hx-4" target="8ctLL7gIs-mifl3hI3hx-3">
          <mxGeometry relative="1" as="geometry" />
        </mxCell>
        <mxCell id="8ctLL7gIs-mifl3hI3hx-9" style="dashed=1;endArrow=none;" edge="1" parent="1" source="8ctLL7gIs-mifl3hI3hx-2" target="8ctLL7gIs-mifl3hI3hx-5">
          <mxGeometry relative="1" as="geometry" />
        </mxCell>
      </root>
    </mxGraphModel>
  </diagram>
</mxfile>
